<?xml version="1.0" encoding="utf-8"?>
<!-- Generator: Adobe Illustrator 16.0.0, SVG Export Plug-In . SVG Version: 6.00 Build 0)  -->
<!DOCTYPE svg PUBLIC "-//W3C//DTD SVG 1.1//EN" "http://www.w3.org/Graphics/SVG/1.1/DTD/svg11.dtd">
<svg version="1.1" id="Layer_1" xmlns="http://www.w3.org/2000/svg" xmlns:xlink="http://www.w3.org/1999/xlink" x="0px" y="0px"
	 width="20px" height="20px" viewBox="0 0 20 20" enable-background="new 0 0 20 20" xml:space="preserve">
<path fill="#ec8230" d="M16,4.001H4.002c-1.104,0-2,0.896-2,2.001V14c0,1.105,0.896,1.998,2,1.998H16
	c1.104,0,1.999-0.893,1.999-1.998V6.003C17.999,4.897,17.104,4.001,16,4.001z M16,13.002C16,13.553,15.552,14,15.001,14H5.002
	c-0.553,0-1.001-0.447-1-1V7c0-0.553,0.447-0.998,1-0.998h9.999C15.552,6.003,16,6.448,16,7V13.002z"/>
<polygon fill="#ec8230" points="13.501,7.502 10.001,11 6.501,7.502 5.501,8.502 7.001,10.002 5.501,11.502 6.501,12.5 8.001,11 
	10.001,12.5 12.001,11 13.501,12.5 14.5,11.5 13,10 14.5,8.5 "/>
</svg>
