<?xml version="1.0" encoding="utf-8"?>
<!-- Generator: Adobe Illustrator 16.0.0, SVG Export Plug-In . SVG Version: 6.00 Build 0)  -->
<!DOCTYPE svg PUBLIC "-//W3C//DTD SVG 1.1//EN" "http://www.w3.org/Graphics/SVG/1.1/DTD/svg11.dtd">
<svg version="1.1" id="Layer_1" xmlns="http://www.w3.org/2000/svg" xmlns:xlink="http://www.w3.org/1999/xlink" x="0px" y="0px"
	 width="20px" height="20px" viewBox="0 0 20 20" enable-background="new 0 0 20 20" xml:space="preserve">
<path fill="#41A3E1" d="M13.498,11.499c-1,1-1,2-2,2c-1,0-2-1-3-2c-0.999-0.998-1.999-2-1.999-3C6.5,7.5,7.5,7.5,8.499,6.5
	c1-1-1.999-4-2.999-4s-3,3-3,3c0,2,2.055,6.055,4,7.999c1.945,1.945,5.998,4.001,7.998,4.001c0,0,3.002-2.001,3.002-3.001
	S14.498,10.501,13.498,11.499z"/>
</svg>
