<svg xmlns="http://www.w3.org/2000/svg" xmlns:xlink="http://www.w3.org/1999/xlink" viewBox="0 0 1849.93 191.71"><defs><style>.cls-1{fill:url(#linear-gradient);}.cls-2{fill:url(#linear-gradient-2);}.cls-3{fill:#eb6c31;}</style><linearGradient id="linear-gradient" x1="6.32" y1="130.12" x2="113.5" y2="130.12" gradientUnits="userSpaceOnUse"><stop offset="0" stop-color="#f8b335"/><stop offset="1" stop-color="#eb6c31"/></linearGradient><linearGradient id="linear-gradient-2" y1="30.35" x2="148.15" y2="30.35" gradientUnits="userSpaceOnUse"><stop offset="0" stop-color="#96c01f"/><stop offset="1" stop-color="#0f8e3a"/></linearGradient></defs><g id="Layer_2" data-name="Layer 2"><g id="Layer_2-2" data-name="Layer 2"><path class="cls-1" d="M72.73,169.72l16.62-1.49a1,1,0,0,0,.64-.31c2.4-2.44,5-5.07,7.81-7.89a53.44,53.44,0,0,0,9.93-13.69,1,1,0,0,0-.83-1.5l-11.68-1.05a1,1,0,0,1,0-2.07l14.42-1.29a1.07,1.07,0,0,0,.89-.69,53.91,53.91,0,0,0,2.82-21.64,1,1,0,0,0-.95-.95l-15.16-1.36a1,1,0,0,1,0-2.07l14.21-1.27a1,1,0,0,0,.93-1.24A53.59,53.59,0,0,0,22,84.23a53.93,53.93,0,0,0-7.94,10.12,1,1,0,0,0,.8,1.57l15.05,1.35a1,1,0,0,1,0,2.07L11.25,101a1,1,0,0,0-.87.64A53.78,53.78,0,0,0,6.33,123.2a1,1,0,0,0,1,1l11.86,1.06a1,1,0,0,1,0,2.07l-11.37,1a1,1,0,0,0-.93,1.16,53.28,53.28,0,0,0,8,21.67,1,1,0,0,0,.78.47l17.93,1.61a1,1,0,0,1,0,2.06L21,156.47a1,1,0,0,0-.68,1.72c.56.62,1.14,1.24,1.74,1.84,36.71,36.71,35,41.51,61.58,14.43a1,1,0,0,0-.65-1.76l-10.21-.91A1,1,0,0,1,72.73,169.72ZM43.06,139a23.82,23.82,0,1,1,33.69,0A23.83,23.83,0,0,1,43.06,139Z"/><path class="cls-2" d="M69.27,34.55A76.36,76.36,0,0,1,104.66,18.7a1,1,0,0,1,.41,2C85.6,25.73,70.2,39,60.62,52A1,1,0,0,1,59,52,58.5,58.5,0,0,0,35.49,33.54a1,1,0,0,1,.7-1.95,53.84,53.84,0,0,1,16.68,8.68,1,1,0,0,0,1.61-1.15C45.72,12.2,13.59,14.41.46,22.86a1,1,0,0,0,.31,1.86c12.76,3.71,29.5,41.86,49.72,27.09a1,1,0,0,1,1.48.27,19.08,19.08,0,0,1,2.68,7.63,1,1,0,0,0,1.1.91c1.18-.08,2.36-.13,3.55-.13,1.59,0,3.16.07,4.73.21a1,1,0,0,0,1-.52,59.62,59.62,0,0,1,7-10,1,1,0,0,1,1.38-.13c30.21,23,55.1-35.65,73.92-39.31a1,1,0,0,0,.38-1.86C129-4.07,79.9-8,67.64,33.44A1,1,0,0,0,69.27,34.55Z"/><path class="cls-3" d="M221.5,145.22h-21v37.09a9.49,9.49,0,0,1-19,0V81.47a9.38,9.38,0,0,1,9.4-9.4h30.6a36.58,36.58,0,1,1,0,73.15Zm-21-19h21a17.61,17.61,0,1,0,0-35.21h-21Z"/><path class="cls-3" d="M360.28,177.52a9.45,9.45,0,0,1-6,12,15.09,15.09,0,0,1-3.76.51h-.17a12.39,12.39,0,0,1-6.66-1.88,16.88,16.88,0,0,1-5.47-6c-2.4-5-3.59-11.11-3.59-20.51a14.48,14.48,0,0,0-2.05-7.35,16,16,0,0,0-5.13-5,32.5,32.5,0,0,0-9.57-4.1H297.72v37.09a9.52,9.52,0,0,1-9.57,9.4,9.37,9.37,0,0,1-9.4-9.4V81.47a9.26,9.26,0,0,1,9.4-9.4h30.59A36.55,36.55,0,0,1,342,136.85a26.41,26.41,0,0,1,6,6.32,32.36,32.36,0,0,1,5.64,18.46,43.3,43.3,0,0,0,.68,10.08A9.24,9.24,0,0,1,360.28,177.52Zm-23.93-68.7A17.62,17.62,0,0,0,318.74,91h-21v35.21h21A17.54,17.54,0,0,0,336.35,108.82Z"/><path class="cls-3" d="M479.4,86.94a62.79,62.79,0,0,1,0,86.48,56,56,0,0,1-40.85,18.29,57.68,57.68,0,0,1-41.87-18.29,63.71,63.71,0,0,1,0-86.48,57,57,0,0,1,41.87-18.29A55.34,55.34,0,0,1,479.4,86.94Zm-2.22,43.24a44.32,44.32,0,0,0-11.62-29.91,36.9,36.9,0,0,0-54.7,0,43.52,43.52,0,0,0-11.62,29.91,42.78,42.78,0,0,0,11.62,29.74,37.37,37.37,0,0,0,27.69,12.3c10.26,0,19.83-4.61,27-12.3A43.56,43.56,0,0,0,477.18,130.18Z"/><path class="cls-3" d="M525.2,182.31V81.47a9.26,9.26,0,0,1,9.4-9.4h20.17a59.82,59.82,0,0,1,0,119.64H534.6A9.37,9.37,0,0,1,525.2,182.31Zm19-9.57h10.6a40.85,40.85,0,0,0,0-81.7h-10.6Z"/><path class="cls-3" d="M697.65,191.71a49.31,49.31,0,0,1-49.39-49.4V81.47a9.26,9.26,0,0,1,9.4-9.4,9.52,9.52,0,0,1,9.57,9.4v60.84a30.42,30.42,0,1,0,60.84,0V81.47a9.42,9.42,0,0,1,9.58-9.4,9.27,9.27,0,0,1,9.4,9.4v60.84A49.42,49.42,0,0,1,697.65,191.71Z"/><path class="cls-3" d="M781.91,130.18c.17-33.84,28.54-61.36,62.73-61.53A64,64,0,0,1,884.12,82a10.1,10.1,0,0,1,1.7,13.67,10,10,0,0,1-13.67,1.88c-7.52-6.15-16.92-9.39-27.51-9.39a45.23,45.23,0,0,0-30.77,12.3,42.17,42.17,0,0,0-12.48,29.74,41.57,41.57,0,0,0,12.48,29.74,45.23,45.23,0,0,0,30.77,12.3,42.89,42.89,0,0,0,27.51-9.4,10.37,10.37,0,0,1,13.67,1.88,10.09,10.09,0,0,1-1.7,13.68,64,64,0,0,1-39.48,13.33C810.45,191.71,782.08,164.19,781.91,130.18Z"/><path class="cls-3" d="M919,182.31V81.47a9.26,9.26,0,0,1,9.4-9.4h55.89a9.48,9.48,0,0,1,9.4,9.4,9.63,9.63,0,0,1-9.4,9.57H938v31.28h39.83a9.49,9.49,0,0,1,0,19H938v31.45h46.32a9.49,9.49,0,0,1,0,19H928.89c-.34,0-.34-.17-.34-.17l-.17.17A9.37,9.37,0,0,1,919,182.31Z"/><path class="cls-3" d="M1071.6,182.31V81.47a9.37,9.37,0,0,1,9.4-9.4,9.52,9.52,0,0,1,9.57,9.4v91.27h46.32a9.49,9.49,0,0,1,0,19H1081A9.37,9.37,0,0,1,1071.6,182.31Z"/><path class="cls-3" d="M1255.33,86.94a62.79,62.79,0,0,1,0,86.48,56,56,0,0,1-40.85,18.29,57.66,57.66,0,0,1-41.87-18.29,63.71,63.71,0,0,1,0-86.48,57,57,0,0,1,41.87-18.29A55.34,55.34,0,0,1,1255.33,86.94Zm-2.22,43.24a44.32,44.32,0,0,0-11.62-29.91,36.9,36.9,0,0,0-54.7,0,43.47,43.47,0,0,0-11.62,29.91c0,11.62,4.44,22.39,11.62,29.74a37.37,37.37,0,0,0,27.69,12.3c10.26,0,19.83-4.61,27-12.3A43.56,43.56,0,0,0,1253.11,130.18Z"/><path class="cls-3" d="M1295.83,130.18c.17-33.84,28.55-61.36,62.73-61.53A64,64,0,0,1,1398,82a10.12,10.12,0,0,1,1.71,13.67,10,10,0,0,1-13.68,1.88c-7.51-6.15-16.92-9.39-27.51-9.39a45.27,45.27,0,0,0-30.77,12.3,42.16,42.16,0,0,0-12.47,29.74,41.56,41.56,0,0,0,12.47,29.74,45.27,45.27,0,0,0,30.77,12.3,42.89,42.89,0,0,0,27.51-9.4,10.38,10.38,0,0,1,13.68,1.88,10.11,10.11,0,0,1-1.71,13.68,64,64,0,0,1-39.48,13.33C1324.38,191.71,1296,164.19,1295.83,130.18Z"/><path class="cls-3" d="M1491.36,163.51h-41.54l-8.37,22.22a9.59,9.59,0,0,1-8.89,6,10,10,0,0,1-3.24-.51,9.71,9.71,0,0,1-5.65-12.31l37.78-100.67a9.54,9.54,0,0,1,9-6,9.39,9.39,0,0,1,9.06,6l37.78,100.67a9.71,9.71,0,0,1-5.65,12.31,9.57,9.57,0,0,1-12-5.47Zm-7-18.8L1470.5,108l-13.84,36.75Z"/><path class="cls-3" d="M1596.81,91h-27.18v91.27a9.26,9.26,0,0,1-9.4,9.4,9.38,9.38,0,0,1-9.4-9.4V91h-27a9.52,9.52,0,0,1-9.4-9.57,9.26,9.26,0,0,1,9.4-9.4h73a9.37,9.37,0,0,1,9.4,9.4A9.63,9.63,0,0,1,1596.81,91Z"/><path class="cls-3" d="M1719.35,86.94a62.77,62.77,0,0,1,0,86.48,56,56,0,0,1-40.84,18.29,57.7,57.7,0,0,1-41.88-18.29,63.71,63.71,0,0,1,0-86.48,57.06,57.06,0,0,1,41.88-18.29A55.33,55.33,0,0,1,1719.35,86.94Zm-2.22,43.24a44.27,44.27,0,0,0-11.62-29.91,36.88,36.88,0,0,0-54.69,0,43.48,43.48,0,0,0-11.63,29.91,42.75,42.75,0,0,0,11.63,29.74,37.37,37.37,0,0,0,27.69,12.3c10.25,0,19.82-4.61,27-12.3A43.51,43.51,0,0,0,1717.13,130.18Z"/><path class="cls-3" d="M1849.42,177.52a9.45,9.45,0,0,1-6,12,15.09,15.09,0,0,1-3.76.51h-.17a12.39,12.39,0,0,1-6.66-1.88,16.7,16.7,0,0,1-5.47-6c-2.39-5-3.59-11.11-3.59-20.51a14.48,14.48,0,0,0-2-7.35,16,16,0,0,0-5.13-5,32.5,32.5,0,0,0-9.57-4.1h-20.17v37.09a9.52,9.52,0,0,1-9.57,9.4,9.37,9.37,0,0,1-9.4-9.4V81.47a9.26,9.26,0,0,1,9.4-9.4h30.59a36.55,36.55,0,0,1,23.25,64.78,26.41,26.41,0,0,1,6,6.32,32.36,32.36,0,0,1,5.64,18.46,43.3,43.3,0,0,0,.68,10.08A9.24,9.24,0,0,1,1849.42,177.52Zm-23.93-68.7A17.62,17.62,0,0,0,1807.88,91h-21v35.21h21A17.54,17.54,0,0,0,1825.49,108.82Z"/></g></g></svg>