<svg xmlns="http://www.w3.org/2000/svg" xmlns:xlink="http://www.w3.org/1999/xlink" viewBox="0 0 644.86 590.66"><defs><style>.cls-1{fill:url(#linear-gradient);}.cls-2{fill:url(#linear-gradient-2);}.cls-3{font-size:65px;fill:#eb6c31;font-family:Quicksand-Bold, Quicksand;font-weight:700;}.cls-4{letter-spacing:-0.02em;}.cls-5{letter-spacing:-0.03em;}.cls-6{letter-spacing:-0.04em;}.cls-7{letter-spacing:-0.03em;}.cls-8{letter-spacing:-0.01em;}.cls-9{letter-spacing:-0.1em;}.cls-10{letter-spacing:-0.06em;}.cls-11{letter-spacing:0em;}</style><linearGradient id="linear-gradient" x1="203.85" y1="308.52" x2="457.97" y2="308.52" gradientUnits="userSpaceOnUse"><stop offset="0" stop-color="#f8b335"/><stop offset="1" stop-color="#eb6c31"/></linearGradient><linearGradient id="linear-gradient-2" x1="184.82" y1="72.04" x2="544.41" y2="72.04" gradientUnits="userSpaceOnUse"><stop offset="0" stop-color="#96c01f"/><stop offset="1" stop-color="#0f8e3a"/></linearGradient></defs><g id="Layer_2" data-name="Layer 2"><g id="Layer_1-2" data-name="Layer 1"><path class="cls-1" d="M334.06,404.86l67.56-6.07c5.86-6,12.2-12.42,19.15-19.36a127.08,127.08,0,0,0,25.12-35.7l-58.5-5.25,63-5.66a127.28,127.28,0,0,0,7-54.86l-65.27-5.87,63.67-5.72a127.05,127.05,0,0,0-235.58-39.28l66.79,6-73,6.55a127.28,127.28,0,0,0-10.11,54.66l57.56,5.17-56.75,5.1a126.37,126.37,0,0,0,20,54.91l70.95,6.38-62,5.56c2.31,2.74,4.72,5.43,7.31,8,88.68,88.68,82.72,98.82,149.64,30.52ZM291,329.51a56.49,56.49,0,1,1,79.89,0A56.48,56.48,0,0,1,291,329.51Z"/><path class="cls-2" d="M347.27,86.68c53.3-45,108.42-47.43,135.84-42.31C414.05,41.6,360,84.78,330.66,125.93,310.35,98.06,273.61,69.31,226.9,71.18c18.82-3.51,56.66-1.87,93.25,29.05-18.1-75.88-107.58-66-135.33-42.23,31.33-3.13,73.74,105,125.77,63.28a44.5,44.5,0,0,1,8.07,22.64c3.58-.31,7.18-.49,10.81-.49q6.45,0,12.79.64c5.92-10.74,13.36-21,18.93-26.72C437,178.09,498.76,20.6,544.41,25.17,504-9.44,373.64-23.86,347.27,86.68Z"/><text class="cls-3" transform="translate(0 578.44)">P<tspan class="cls-4" x="37.89" y="0">R</tspan><tspan class="cls-5" x="77.41" y="0">O</tspan><tspan x="130.71" y="0">DUCE </tspan><tspan class="cls-6" x="338.52" y="0">L</tspan><tspan class="cls-7" x="372.51" y="0">O</tspan><tspan class="cls-8" x="425.81" y="0">C</tspan><tspan class="cls-9" x="474.95" y="0">A</tspan><tspan class="cls-10" x="510.44" y="0">T</tspan><tspan class="cls-11" x="548.99" y="0">OR</tspan></text></g></g></svg>