<?xml version="1.0" encoding="utf-8"?>
<!-- Generator: Adobe Illustrator 16.0.0, SVG Export Plug-In . SVG Version: 6.00 Build 0)  -->
<!DOCTYPE svg PUBLIC "-//W3C//DTD SVG 1.1//EN" "http://www.w3.org/Graphics/SVG/1.1/DTD/svg11.dtd">
<svg version="1.1" id="Layer_1" xmlns="http://www.w3.org/2000/svg" xmlns:xlink="http://www.w3.org/1999/xlink" x="0px" y="0px"
	 width="20px" height="20px" viewBox="0 0 20 20" enable-background="new 0 0 20 20" xml:space="preserve">
<path fill-rule="evenodd" clip-rule="evenodd" fill="#ec8230" d="M17.613,17.626c-0.481,0.48-1.26,0.48-1.741,0l-2.893-2.892
	c-1.134,0.791-2.507,1.263-3.994,1.263c-3.865,0-6.999-3.132-6.999-6.998C1.986,5.133,5.12,2,8.985,2S15.984,5.133,15.984,9
	c0,1.489-0.471,2.862-1.263,3.995l2.892,2.892C18.094,16.366,18.094,17.146,17.613,17.626L17.613,17.626z M8.985,4
	c-2.762,0-5,2.238-5,5c0,2.76,2.238,4.999,5,4.999s5-2.238,5-4.999C13.985,6.238,11.747,4,8.985,4L8.985,4z"/>
</svg>
